<svg width="63" height="18" viewBox="0 0 63 18" fill="none" xmlns="http://www.w3.org/2000/svg">
<rect width="63" height="18" rx="5" fill="#FB7328"/>
<path fill-rule="evenodd" clip-rule="evenodd" d="M14.9421 9.9834C14.9421 10.9326 14.4914 11.693 13.7689 12.3918C13.0613 13.0763 12.038 13.7542 10.7897 14.5426C10.613 14.6542 10.3877 14.6542 10.211 14.5426C8.94134 13.7407 7.92449 12.9831 7.21969 12.258C6.52597 11.5443 6.0586 10.7848 6.05859 9.9834V5.63473L6.06388 5.55908C6.08853 5.38441 6.19737 5.2305 6.35799 5.15019L9.38582 3.63627L9.51912 3.57491C10.1903 3.2873 10.9568 3.30758 11.6144 3.63627L14.6427 5.15019L14.7078 5.18933C14.8529 5.28947 14.9421 5.45523 14.9421 5.63473V9.9834ZM12.5083 7.20207C12.2968 6.99053 11.9539 6.99053 11.7424 7.20207L10.175 8.76888L9.58313 8.17696L9.5424 8.13993C9.32964 7.96617 9.01558 7.97856 8.81718 8.17696C8.61895 8.37528 8.60666 8.68893 8.78015 8.90165L8.81718 8.94291L9.79207 9.91781C10.0036 10.1293 10.3465 10.1293 10.558 9.91781L12.5083 7.96802C12.7198 7.75653 12.7197 7.41361 12.5083 7.20207Z" fill="white"/>
<path d="M20.0957 13V4.36328H23.002C23.5684 4.36328 24.1074 4.45312 24.6191 4.63281C25.1348 4.8125 25.5918 5.08008 25.9902 5.43555C26.3887 5.79102 26.7031 6.23438 26.9336 6.76562C27.1641 7.29688 27.2793 7.91406 27.2793 8.61719C27.2793 9.33203 27.1641 9.96289 26.9336 10.5098C26.707 11.0527 26.3984 11.5098 26.0078 11.8809C25.6172 12.252 25.1738 12.5312 24.6777 12.7188C24.1816 12.9062 23.666 13 23.1309 13H20.0957ZM21.7715 11.4941H23.1719C23.4531 11.4941 23.7344 11.4375 24.0156 11.3242C24.3008 11.2109 24.5625 11.0371 24.8008 10.8027C25.043 10.5645 25.2363 10.2656 25.3809 9.90625C25.5293 9.54297 25.6035 9.11328 25.6035 8.61719C25.6035 8.13281 25.5293 7.7168 25.3809 7.36914C25.2363 7.02148 25.043 6.73828 24.8008 6.51953C24.5625 6.29688 24.3008 6.13281 24.0156 6.02734C23.7344 5.92188 23.4531 5.86914 23.1719 5.86914H21.7715V11.4941ZM19.2051 9.11523V8.13086H22.9434V9.11523H19.2051ZM31.1641 13.0938C30.5664 13.0938 30.0234 12.957 29.5352 12.6836C29.0508 12.4062 28.6641 12.0234 28.375 11.5352C28.0898 11.0469 27.9473 10.4844 27.9473 9.84766C27.9473 9.21094 28.0898 8.65234 28.375 8.17188C28.6641 7.6875 29.0508 7.31055 29.5352 7.04102C30.0234 6.76758 30.5664 6.63086 31.1641 6.63086C31.7734 6.63086 32.3203 6.76758 32.8047 7.04102C33.2891 7.31055 33.6719 7.6875 33.9531 8.17188C34.2383 8.65234 34.3809 9.21094 34.3809 9.84766C34.3809 10.4844 34.2383 11.0469 33.9531 11.5352C33.668 12.0234 33.2832 12.4062 32.7988 12.6836C32.3145 12.957 31.7695 13.0938 31.1641 13.0938ZM31.1641 11.6934C31.4805 11.6934 31.7637 11.6172 32.0137 11.4648C32.2637 11.3086 32.4609 11.0918 32.6055 10.8145C32.75 10.5371 32.8223 10.2148 32.8223 9.84766C32.8223 9.48828 32.752 9.17383 32.6113 8.9043C32.4707 8.63086 32.2754 8.41797 32.0254 8.26562C31.7793 8.10938 31.4941 8.03125 31.1699 8.03125C30.8535 8.03125 30.5703 8.10742 30.3203 8.25977C30.0703 8.4082 29.873 8.61914 29.7285 8.89258C29.584 9.16602 29.5117 9.48438 29.5117 9.84766C29.5117 10.2148 29.584 10.5371 29.7285 10.8145C29.873 11.0918 30.0684 11.3086 30.3145 11.4648C30.5645 11.6172 30.8477 11.6934 31.1641 11.6934ZM33.0039 4.53906L32.2773 4.02344L34.1465 2.14258L34.9258 3.16211L33.0039 4.53906ZM29.7109 6.13281L28.9785 5.38281L31.0117 3.9707H31.3457L33.373 5.38281L32.6582 6.13281L31.1875 5.04883H31.1523L29.7109 6.13281ZM35.4004 13V6.72461H37.0176V13H35.4004ZM36.2031 5.92773C35.918 5.92773 35.6758 5.82812 35.4766 5.62891C35.2773 5.42578 35.1777 5.18164 35.1777 4.89648C35.1777 4.60742 35.2773 4.36523 35.4766 4.16992C35.6758 3.9707 35.918 3.87109 36.2031 3.87109C36.4922 3.87109 36.7344 3.9707 36.9297 4.16992C37.1289 4.36523 37.2285 4.60742 37.2285 4.89648C37.2285 5.18164 37.1289 5.42578 36.9297 5.62891C36.7344 5.82812 36.4922 5.92773 36.2031 5.92773ZM43.3223 13V5.61719H44.998V13H43.3223ZM41.166 5.86914V4.36328H47.1484V5.86914H41.166ZM48.9414 13.0938C48.5195 13.0938 48.1484 13.0098 47.8281 12.8418C47.5078 12.6699 47.2578 12.4395 47.0781 12.1504C46.8984 11.8613 46.8086 11.5352 46.8086 11.1719C46.8086 10.7969 46.9102 10.4668 47.1133 10.1816C47.3203 9.89258 47.627 9.66797 48.0332 9.50781C48.4395 9.34375 48.9414 9.26172 49.5391 9.26172H50.9336V10.3281H49.5508C49.1758 10.3281 48.8828 10.3906 48.6719 10.5156C48.4609 10.6406 48.3555 10.8359 48.3555 11.1016C48.3555 11.2617 48.3945 11.3984 48.4727 11.5117C48.5547 11.6211 48.668 11.7051 48.8125 11.7637C48.957 11.8223 49.1211 11.8516 49.3047 11.8516C49.4727 11.8516 49.668 11.8145 49.8906 11.7402C50.1133 11.666 50.3066 11.5469 50.4707 11.3828C50.6387 11.2148 50.7227 10.9961 50.7227 10.7266V10.082L50.6172 9.76562V8.95703C50.6172 8.82031 50.5977 8.69336 50.5586 8.57617C50.5195 8.45898 50.4551 8.35547 50.3652 8.26562C50.2793 8.17578 50.1641 8.10742 50.0195 8.06055C49.8789 8.00977 49.707 7.98438 49.5039 7.98438C49.3047 7.98438 49.0957 8.00586 48.877 8.04883C48.6582 8.0918 48.4492 8.15039 48.25 8.22461C48.0547 8.29492 47.8867 8.375 47.7461 8.46484L47.2188 7.21094C47.3789 7.11719 47.5879 7.02734 47.8457 6.94141C48.1035 6.85156 48.3926 6.7793 48.7129 6.72461C49.0371 6.66602 49.375 6.63672 49.7266 6.63672C50.3008 6.63672 50.752 6.71484 51.0801 6.87109C51.4082 7.02734 51.6484 7.22656 51.8008 7.46875C51.957 7.70703 52.0566 7.95703 52.0996 8.21875C52.1426 8.48047 52.1641 8.71875 52.1641 8.93359V10.8906C52.1641 11.1289 52.1875 11.3086 52.2344 11.4297C52.2852 11.5469 52.3828 11.6289 52.5273 11.6758L52.668 11.7227L52.082 13.0938L51.8945 13.0234C51.5508 12.8945 51.3008 12.7441 51.1445 12.5723C50.9883 12.3965 50.8984 12.2227 50.875 12.0508L51.1797 12.25H50.6641L51.0156 12.0859C50.8828 12.3516 50.625 12.5859 50.2422 12.7891C49.8633 12.9922 49.4297 13.0938 48.9414 13.0938ZM49.7031 6.19727L49.0059 5.59375L50.6641 3.42578L51.625 4.3457L49.7031 6.19727ZM56.5176 13.0703C56.0566 13.0703 55.625 12.9883 55.2227 12.8242C54.8242 12.6602 54.4727 12.4316 54.168 12.1387C53.8672 11.8457 53.6309 11.5039 53.459 11.1133C53.2871 10.7188 53.2012 10.291 53.2012 9.83008C53.2012 9.37305 53.2852 8.95117 53.4531 8.56445C53.625 8.17383 53.8613 7.83398 54.1621 7.54492C54.4629 7.25195 54.8086 7.02539 55.1992 6.86523C55.5938 6.70508 56.0137 6.625 56.459 6.625C56.8184 6.625 57.168 6.67773 57.5078 6.7832C57.8477 6.88477 58.1484 7.02734 58.4102 7.21094L57.8125 8.52344C57.7031 8.42578 57.5781 8.33984 57.4375 8.26562C57.2969 8.19141 57.1465 8.13477 56.9863 8.0957C56.8301 8.05664 56.668 8.03711 56.5 8.03711C56.1562 8.03711 55.8535 8.11719 55.5918 8.27734C55.3301 8.4375 55.127 8.6543 54.9824 8.92773C54.8379 9.19727 54.7656 9.5 54.7656 9.83594C54.7656 10.1758 54.8398 10.4844 54.9883 10.7617C55.1367 11.0352 55.3418 11.2539 55.6035 11.418C55.8652 11.5781 56.1641 11.6582 56.5 11.6582C56.7734 11.6582 57.0332 11.6113 57.2793 11.5176C57.5254 11.4199 57.7109 11.3105 57.8359 11.1895L58.4219 12.5312C58.1953 12.6797 57.916 12.8066 57.584 12.9121C57.2559 13.0176 56.9004 13.0703 56.5176 13.0703Z" fill="white"/>
</svg>
